# Wavefront OBJ file export by VMD
# 
# Molecular graphics exported from VMD 1.9.3
# http://www.ks.uiuc.edu/Research/vmd/
# 
# Load Material Library paired with this scene:
mtllib adenine_surface_lowres.mtl
g vmd_mol1_rep0
# MoleculeID: 1 ReprID: 0 Beginning QuickSurf
v -0.419944 -0.643522 -0.344779
vn -0.7198 -0.3065 -0.6229
v -0.419944 -0.683726 -0.310428
vn -0.7321 -0.3736 -0.5696
v -0.457651 -0.643522 -0.310428
vn -0.7659 -0.3066 -0.5651
v -0.126137 -0.643522 -0.457062
vn -0.0236 -0.5857 -0.8102
v -0.126137 -0.823567 -0.310428
vn 0.0107 -0.9022 -0.4311
v 0.167670 -0.643522 -0.379248
vn 0.3829 -0.8048 -0.4536
v 0.167670 -0.716411 -0.310428
vn 0.4005 -0.8416 -0.3624
v 0.252198 -0.643522 -0.310428
vn 0.4446 -0.8066 -0.3895
v -0.419944 -0.406717 -0.310428
vn -0.8327 0.2091 -0.5128
v -0.414802 -0.349715 -0.310428
vn -0.8203 0.2975 -0.4885
v -0.126137 -0.349715 -0.528423
vn -0.3810 0.0354 -0.9239
v -0.419944 -0.643522 -0.344779
vn -0.7198 -0.3065 -0.6229
v 0.167670 -0.349715 -0.565396
vn 0.1191 -0.0744 -0.9901
v -0.126137 -0.643522 -0.457062
vn -0.0236 -0.5857 -0.8102
v 0.461477 -0.468993 -0.310428
vn 0.7848 -0.2954 -0.5448
v 0.167670 -0.643522 -0.379248
vn 0.3829 -0.8048 -0.4536
v 0.461477 -0.349715 -0.418685
vn 0.7448 -0.1182 -0.6567
v 0.560409 -0.349715 -0.310428
vn 0.8453 -0.1186 -0.5209
v -0.126137 -0.055908 -0.386831
vn -0.3894 0.4126 -0.8235
v -0.414802 -0.349715 -0.310428
vn -0.8203 0.2975 -0.4885
v -0.205896 -0.055908 -0.310428
vn -0.4502 0.4070 -0.7948
v -0.126137 -0.349715 -0.528423
vn -0.3810 0.0354 -0.9239
v 0.167670 -0.055908 -0.479039
vn 0.0828 0.4727 -0.8773
v 0.424004 -0.055908 -0.310428
vn 0.5695 0.4921 -0.6585
v 0.461477 -0.125649 -0.310428
vn 0.7326 0.2915 -0.6150
v 0.167670 -0.349715 -0.565396
vn 0.1191 -0.0744 -0.9901
v 0.461477 -0.349715 -0.418685
vn 0.7448 -0.1182 -0.6567
v -0.126137 0.098779 -0.310428
vn -0.2335 0.3379 -0.9118
v -0.126137 -0.055908 -0.386831
vn -0.3894 0.4126 -0.8235
v 0.167670 0.146310 -0.310428
vn 0.1450 0.5314 -0.8346
v -0.419944 -0.683726 -0.310428
vn -0.7321 -0.3736 -0.5696
v -0.419944 -0.751405 -0.016621
vn -0.6102 -0.6946 0.3811
v -0.531894 -0.643522 -0.016621
vn -0.8096 -0.4648 0.3583
v -0.457651 -0.643522 -0.310428
vn -0.7659 -0.3066 -0.5651
v -0.126137 -0.823567 -0.310428
vn 0.0107 -0.9022 -0.4311
v -0.126137 -0.823303 -0.016621
vn 0.0133 -0.9121 0.4098
v -0.419944 -0.751405 -0.016621
vn -0.6102 -0.6946 0.3811
v 0.167670 -0.716411 -0.310428
vn 0.4005 -0.8416 -0.3624
v 0.167670 -0.760611 -0.016621
vn 0.2508 -0.9556 0.1547
v 0.252198 -0.643522 -0.310428
vn 0.4446 -0.8066 -0.3895
v 0.382142 -0.643522 -0.016621
vn 0.4209 -0.9065 0.0330
v -0.419944 -0.349715 -0.293571
vn -0.8448 0.2899 -0.4497
v -0.419944 -0.406717 -0.310428
vn -0.8327 0.2091 -0.5128
v -0.457651 -0.643522 -0.310428
vn -0.7659 -0.3066 -0.5651
v -0.538292 -0.349715 -0.016621
vn -0.9713 0.0496 0.2325
v -0.531894 -0.643522 -0.016621
vn -0.8096 -0.4648 0.3583
v -0.414802 -0.349715 -0.310428
vn -0.8203 0.2975 -0.4885
v 0.461477 -0.607378 -0.016621
vn 0.6058 -0.7949 -0.0342
v 0.461477 -0.468993 -0.310428
vn 0.7848 -0.2954 -0.5448
v 0.252198 -0.643522 -0.310428
vn 0.4446 -0.8066 -0.3895
v 0.560409 -0.349715 -0.310428
vn 0.8453 -0.1186 -0.5209
v 0.659724 -0.349715 -0.016621
vn 0.9930 -0.1162 -0.0188
v -0.419944 -0.055908 -0.113134
vn -0.9697 -0.0234 -0.2431
v -0.419944 -0.349715 -0.293571
vn -0.8448 0.2899 -0.4497
v -0.538292 -0.349715 -0.016621
vn -0.9713 0.0496 0.2325
v -0.506902 -0.055908 -0.016621
vn -0.9913 -0.0857 -0.1001
v -0.414802 -0.349715 -0.310428
vn -0.8203 0.2975 -0.4885
v -0.205896 -0.055908 -0.310428
vn -0.4502 0.4070 -0.7948
v 0.461477 -0.125649 -0.310428
vn 0.7326 0.2915 -0.6150
v 0.424004 -0.055908 -0.310428
vn 0.5695 0.4921 -0.6585
v 0.461477 -0.055908 -0.266468
vn 0.7370 0.4582 -0.4968
v 0.605680 -0.055908 -0.016621
vn 0.9445 0.3262 -0.0384
v 0.560409 -0.349715 -0.310428
vn 0.8453 -0.1186 -0.5209
v 0.659724 -0.349715 -0.016621
vn 0.9930 -0.1162 -0.0188
v -0.419944 0.237899 -0.186764
vn -0.7891 -0.1980 -0.5815
v -0.419944 -0.055908 -0.113134
vn -0.9697 -0.0234 -0.2431
v -0.506902 -0.055908 -0.016621
vn -0.9913 -0.0857 -0.1001
v -0.575241 0.237899 -0.016621
vn -0.9473 -0.2842 -0.1480
v -0.205896 -0.055908 -0.310428
vn -0.4502 0.4070 -0.7948
v -0.126137 0.237899 -0.285868
vn -0.0627 0.2359 -0.9697
v -0.126137 0.098779 -0.310428
vn -0.2335 0.3379 -0.9118
v 0.167670 0.237899 -0.255045
vn 0.3194 0.5147 -0.7957
v 0.167670 0.146310 -0.310428
vn 0.1450 0.5314 -0.8346
v 0.424638 0.237899 -0.016621
vn 0.9057 0.3946 -0.1547
v 0.424004 -0.055908 -0.310428
vn 0.5695 0.4921 -0.6585
v 0.461477 0.163936 -0.016621
vn 0.9156 0.3918 -0.0904
v 0.461477 -0.055908 -0.266468
vn 0.7370 0.4582 -0.4968
v 0.605680 -0.055908 -0.016621
vn 0.9445 0.3262 -0.0384
v -0.419944 0.531706 -0.210498
vn -0.4544 0.1566 -0.8769
v -0.419944 0.237899 -0.186764
vn -0.7891 -0.1980 -0.5815
v -0.575241 0.237899 -0.016621
vn -0.9473 -0.2842 -0.1480
v -0.648297 0.531706 -0.016621
vn -0.9723 0.0422 -0.2297
v -0.126137 0.237899 -0.285868
vn -0.0627 0.2359 -0.9697
v -0.126137 0.531706 -0.246775
vn -0.0162 0.3343 -0.9423
v 0.167670 0.237899 -0.255045
vn 0.3194 0.5147 -0.7957
v 0.167670 0.531706 -0.217685
vn 0.3738 0.3368 -0.8642
v 0.403737 0.531706 -0.016621
vn 0.9293 0.2549 -0.2674
v 0.424638 0.237899 -0.016621
vn 0.9057 0.3946 -0.1547
v -0.419944 0.825513 -0.099428
vn -0.3581 0.7904 -0.4971
v -0.419944 0.531706 -0.210498
vn -0.4544 0.1566 -0.8769
v -0.517471 0.825513 -0.016621
vn -0.5202 0.7863 -0.3334
v -0.648297 0.531706 -0.016621
vn -0.9723 0.0422 -0.2297
v -0.126137 0.825513 -0.103490
vn 0.0674 0.8847 -0.4612
v -0.126137 0.531706 -0.246775
vn -0.0162 0.3343 -0.9423
v 0.167670 0.825513 -0.049691
vn 0.3644 0.8549 -0.3692
v 0.210498 0.825513 -0.016621
vn 0.4116 0.8507 -0.3270
v 0.403737 0.531706 -0.016621
vn 0.9293 0.2549 -0.2674
v 0.167670 0.531706 -0.217685
vn 0.3738 0.3368 -0.8642
v -0.419944 0.825513 -0.099428
vn -0.3581 0.7904 -0.4971
v -0.419944 0.908320 -0.016621
vn -0.3400 0.8849 -0.3184
v -0.126137 0.912382 -0.016621
vn 0.0644 0.9531 -0.2958
v 0.167670 0.858583 -0.016621
vn 0.3587 0.8772 -0.3193
v -0.419944 -0.751405 -0.016621
vn -0.6102 -0.6946 0.3811
v -0.419944 -0.643522 0.081480
vn -0.5965 -0.4892 0.6363
v -0.531894 -0.643522 -0.016621
vn -0.8096 -0.4648 0.3583
v -0.419944 -0.751405 -0.016621
vn -0.6102 -0.6946 0.3811
v -0.126137 -0.823303 -0.016621
vn 0.0133 -0.9121 0.4098
v -0.126137 -0.643522 0.129287
vn -0.1083 -0.6900 0.7156
v 0.167670 -0.760611 -0.016621
vn 0.2508 -0.9556 0.1547
v 0.167670 -0.643522 0.145484
vn 0.0980 -0.9287 0.3576
v 0.382142 -0.643522 -0.016621
vn 0.4209 -0.9065 0.0330
v -0.419944 -0.349715 0.090721
vn -0.8875 -0.0654 0.4562
v -0.538292 -0.349715 -0.016621
vn -0.9713 0.0496 0.2325
v -0.419944 -0.643522 0.081480
vn -0.5965 -0.4892 0.6363
v -0.126137 -0.349715 0.268177
vn -0.5551 -0.4382 0.7070
v -0.113756 -0.349715 0.277186
vn -0.5296 -0.4391 0.7257
v 0.167670 -0.568713 0.277186
vn -0.0888 -0.7214 0.6868
v -0.126137 -0.643522 0.129287
vn -0.1083 -0.6900 0.7156
v 0.461477 -0.607378 -0.016621
vn 0.6058 -0.7949 -0.0342
v 0.461477 -0.456331 0.277186
vn 0.6078 -0.3408 0.7173
v 0.659724 -0.349715 -0.016621
vn 0.9930 -0.1162 -0.0188
v 0.547015 -0.349715 0.277186
vn 0.7202 -0.1653 0.6738
v -0.419944 -0.349715 0.090721
vn -0.8875 -0.0654 0.4562
v -0.419944 -0.055908 0.133816
vn -0.9542 -0.2430 0.1744
v -0.506902 -0.055908 -0.016621
vn -0.9913 -0.0857 -0.1001
v -0.538292 -0.349715 -0.016621
vn -0.9713 0.0496 0.2325
v -0.337714 -0.055908 0.277186
vn -0.6311 -0.3841 0.6739
v -0.126137 -0.349715 0.268177
vn -0.5551 -0.4382 0.7070
v -0.126137 -0.331169 0.277186
vn -0.5420 -0.4301 0.7220
v -0.113756 -0.349715 0.277186
vn -0.5296 -0.4391 0.7257
v 0.659724 -0.349715 -0.016621
vn 0.9930 -0.1162 -0.0188
v 0.605680 -0.055908 -0.016621
vn 0.9445 0.3262 -0.0384
v 0.547015 -0.349715 0.277186
vn 0.7202 -0.1653 0.6738
v 0.474839 -0.055908 0.277186
vn 0.7878 0.2621 0.5574
v -0.419944 -0.055908 0.133816
vn -0.9542 -0.2430 0.1744
v -0.419944 0.145547 0.277186
vn -0.7437 -0.3592 0.5638
v -0.466510 0.237899 0.277186
vn -0.7628 -0.3433 0.5480
v -0.506902 -0.055908 -0.016621
vn -0.9913 -0.0857 -0.1001
v -0.575241 0.237899 -0.016621
vn -0.9473 -0.2842 -0.1480
v -0.337714 -0.055908 0.277186
vn -0.6311 -0.3841 0.6739
v 0.461477 0.163936 -0.016621
vn 0.9156 0.3918 -0.0904
v 0.364093 0.237899 0.277186
vn 0.8001 0.1874 0.5698
v 0.461477 -0.033238 0.277186
vn 0.7922 0.2622 0.5510
v 0.424638 0.237899 -0.016621
vn 0.9057 0.3946 -0.1547
v 0.474839 -0.055908 0.277186
vn 0.7878 0.2621 0.5574
v 0.605680 -0.055908 -0.016621
vn 0.9445 0.3262 -0.0384
v -0.466510 0.237899 0.277186
vn -0.7628 -0.3433 0.5480
v -0.648297 0.531706 -0.016621
vn -0.9723 0.0422 -0.2297
v -0.581387 0.531706 0.277186
vn -0.8081 -0.0047 0.5890
v 0.403737 0.531706 -0.016621
vn 0.9293 0.2549 -0.2674
v 0.380100 0.531706 0.277186
vn 0.8733 0.1744 0.4549
v -0.517471 0.825513 -0.016621
vn -0.5202 0.7863 -0.3334
v -0.460440 0.825513 0.277186
vn -0.4676 0.6987 0.5414
v 0.210498 0.825513 -0.016621
vn 0.4116 0.8507 -0.3270
v 0.180774 0.825513 0.277186
vn 0.3709 0.8326 0.4113
v -0.419944 0.859943 0.277186
vn -0.4036 0.7424 0.5347
v -0.419944 0.908320 -0.016621
vn -0.3400 0.8849 -0.3184
v -0.126137 0.912382 -0.016621
vn 0.0644 0.9531 -0.2958
v -0.126137 0.878666 0.277186
vn 0.0298 0.8998 0.4353
v 0.167670 0.858583 -0.016621
vn 0.3587 0.8772 -0.3193
v 0.167670 0.835552 0.277186
vn 0.3550 0.8408 0.4087
v 0.167670 -0.568713 0.277186
vn -0.0888 -0.7214 0.6868
v 0.167670 -0.349715 0.459182
vn -0.0465 -0.2591 0.9647
v -0.113756 -0.349715 0.277186
vn -0.5296 -0.4391 0.7257
v 0.461477 -0.456331 0.277186
vn 0.6078 -0.3408 0.7173
v 0.461477 -0.349715 0.354967
vn 0.5986 -0.1684 0.7832
v 0.547015 -0.349715 0.277186
vn 0.7202 -0.1653 0.6738
v -0.126137 -0.331169 0.277186
vn -0.5420 -0.4301 0.7220
v -0.126137 -0.055908 0.418639
vn -0.3328 -0.2571 0.9073
v -0.337714 -0.055908 0.277186
vn -0.6311 -0.3841 0.6739
v 0.167670 -0.055908 0.461543
vn 0.0989 0.0604 0.9933
v 0.461477 -0.055908 0.289949
vn 0.7767 0.2616 0.5729
v 0.167670 -0.349715 0.459182
vn -0.0465 -0.2591 0.9647
v 0.474839 -0.055908 0.277186
vn 0.7878 0.2621 0.5574
v -0.419944 0.145547 0.277186
vn -0.7437 -0.3592 0.5638
v -0.419944 0.237899 0.318889
vn -0.7195 -0.3361 0.6077
v -0.466510 0.237899 0.277186
vn -0.7628 -0.3433 0.5480
v -0.126137 0.237899 0.456703
vn -0.1167 -0.0925 0.9889
v 0.167670 0.237899 0.430788
vn 0.3634 0.0693 0.9290
v -0.126137 -0.055908 0.418639
vn -0.3328 -0.2571 0.9073
v 0.461477 -0.033238 0.277186
vn 0.7922 0.2622 0.5510
v 0.364093 0.237899 0.277186
vn 0.8001 0.1874 0.5698
v 0.461477 -0.055908 0.289949
vn 0.7767 0.2616 0.5729
v 0.167670 -0.055908 0.461543
vn 0.0989 0.0604 0.9933
v 0.474839 -0.055908 0.277186
vn 0.7878 0.2621 0.5574
v -0.419944 0.237899 0.318889
vn -0.7195 -0.3361 0.6077
v -0.419944 0.531706 0.406219
vn -0.4999 0.0071 0.8661
v -0.581387 0.531706 0.277186
vn -0.8081 -0.0047 0.5890
v -0.466510 0.237899 0.277186
vn -0.7628 -0.3433 0.5480
v -0.126137 0.237899 0.456703
vn -0.1167 -0.0925 0.9889
v -0.126137 0.531706 0.460765
vn -0.0630 0.1707 0.9833
v 0.167670 0.237899 0.430788
vn 0.3634 0.0693 0.9290
v 0.167670 0.531706 0.442212
vn 0.3525 0.1733 0.9196
v 0.364093 0.237899 0.277186
vn 0.8001 0.1874 0.5698
v 0.380100 0.531706 0.277186
vn 0.8733 0.1744 0.4549
v -0.419944 0.825513 0.311616
vn -0.4072 0.6907 0.5976
v -0.460440 0.825513 0.277186
vn -0.4676 0.6987 0.5414
v -0.581387 0.531706 0.277186
vn -0.8081 -0.0047 0.5890
v -0.419944 0.531706 0.406219
vn -0.4999 0.0071 0.8661
v -0.126137 0.825513 0.330339
vn 0.0308 0.8442 0.5351
v 0.167670 0.825513 0.287224
vn 0.3570 0.8322 0.4244
v -0.126137 0.531706 0.460765
vn -0.0630 0.1707 0.9833
v 0.180774 0.825513 0.277186
vn 0.3709 0.8326 0.4113
v 0.167670 0.531706 0.442212
vn 0.3525 0.1733 0.9196
v 0.380100 0.531706 0.277186
vn 0.8733 0.1744 0.4549
v -0.419944 0.825513 0.311616
vn -0.4072 0.6907 0.5976
v -0.419944 0.859943 0.277186
vn -0.4036 0.7424 0.5347
v -0.126137 0.878666 0.277186
vn 0.0298 0.8998 0.4353
v 0.167670 0.835552 0.277186
vn 0.3550 0.8408 0.4087
v -0.126137 0.825513 0.330339
vn 0.0308 0.8442 0.5351
v 0.167670 0.825513 0.287224
vn 0.3570 0.8322 0.4244
usemtl vmd_mat_cindex_8
f -211//-211 -210//-210 -209//-209
f -211//-211 -208//-208 -207//-207
f -210//-210 -211//-211 -207//-207
f -208//-208 -206//-206 -205//-205
f -207//-207 -208//-208 -205//-205
f -205//-205 -206//-206 -204//-204
f -211//-211 -209//-209 -203//-203
f -203//-203 -202//-202 -201//-201
f -203//-203 -201//-201 -200//-200
f -200//-200 -201//-201 -208//-208
f -206//-206 -208//-208 -199//-199
f -199//-199 -198//-198 -201//-201
f -197//-197 -204//-204 -196//-196
f -197//-197 -196//-196 -195//-195
f -195//-195 -196//-196 -199//-199
f -197//-197 -195//-195 -194//-194
f -193//-193 -201//-201 -192//-192
f -191//-191 -193//-193 -192//-192
f -199//-199 -190//-190 -189//-189
f -189//-189 -190//-190 -193//-193
f -188//-188 -187//-187 -195//-195
f -188//-188 -195//-195 -189//-189
f -189//-189 -195//-195 -186//-186
f -194//-194 -185//-185 -187//-187
f -193//-193 -191//-191 -184//-184
f -189//-189 -183//-183 -184//-184
f -182//-182 -189//-189 -184//-184
f -188//-188 -189//-189 -182//-182
f -181//-181 -180//-180 -179//-179
f -178//-178 -181//-181 -179//-179
f -177//-177 -176//-176 -181//-181
f -181//-181 -176//-176 -175//-175
f -174//-174 -173//-173 -177//-177
f -177//-177 -173//-173 -176//-176
f -173//-173 -174//-174 -172//-172
f -171//-171 -173//-173 -172//-172
f -170//-170 -169//-169 -168//-168
f -170//-170 -168//-168 -167//-167
f -167//-167 -168//-168 -166//-166
f -169//-169 -170//-170 -165//-165
f -172//-172 -164//-164 -171//-171
f -163//-163 -164//-164 -162//-162
f -164//-164 -163//-163 -161//-161
f -160//-160 -164//-164 -161//-161
f -159//-159 -158//-158 -157//-157
f -156//-156 -159//-159 -157//-157
f -155//-155 -159//-159 -154//-154
f -158//-158 -159//-159 -155//-155
f -153//-153 -152//-152 -151//-151
f -153//-153 -151//-151 -150//-150
f -153//-153 -150//-150 -149//-149
f -149//-149 -150//-150 -148//-148
f -147//-147 -146//-146 -145//-145
f -144//-144 -147//-147 -145//-145
f -143//-143 -142//-142 -141//-141
f -143//-143 -146//-146 -142//-142
f -146//-146 -147//-147 -142//-142
f -141//-141 -140//-140 -139//-139
f -142//-142 -140//-140 -141//-141
f -139//-139 -140//-140 -138//-138
f -137//-137 -139//-139 -138//-138
f -137//-137 -138//-138 -136//-136
f -137//-137 -136//-136 -135//-135
f -134//-134 -135//-135 -136//-136
f -133//-133 -132//-132 -131//-131
f -130//-130 -133//-133 -131//-131
f -129//-129 -132//-132 -128//-128
f -128//-128 -132//-132 -133//-133
f -127//-127 -129//-129 -126//-126
f -126//-126 -129//-129 -128//-128
f -125//-125 -124//-124 -127//-127
f -126//-126 -125//-125 -127//-127
f -123//-123 -122//-122 -130//-130
f -121//-121 -123//-123 -120//-120
f -128//-128 -122//-122 -119//-119
f -119//-119 -122//-122 -123//-123
f -126//-126 -118//-118 -117//-117
f -117//-117 -118//-118 -119//-119
f -116//-116 -115//-115 -114//-114
f -117//-117 -116//-116 -114//-114
f -113//-113 -121//-121 -112//-112
f -119//-119 -113//-113 -112//-112
f -111//-111 -119//-119 -112//-112
f -117//-117 -119//-119 -111//-111
f -110//-110 -117//-117 -111//-111
f -116//-116 -117//-117 -110//-110
f -109//-109 -108//-108 -107//-107
f -106//-106 -105//-105 -104//-104
f -108//-108 -106//-106 -104//-104
f -105//-105 -103//-103 -102//-102
f -104//-104 -105//-105 -102//-102
f -103//-103 -101//-101 -102//-102
f -108//-108 -100//-100 -99//-99
f -107//-107 -98//-98 -99//-99
f -104//-104 -97//-97 -98//-98
f -97//-97 -100//-100 -98//-98
f -96//-96 -102//-102 -95//-95
f -96//-96 -97//-97 -102//-102
f -97//-97 -94//-94 -102//-102
f -101//-101 -95//-95 -102//-102
f -101//-101 -93//-93 -95//-95
f -93//-93 -92//-92 -95//-95
f -92//-92 -93//-93 -91//-91
f -90//-90 -92//-92 -91//-91
f -89//-89 -88//-88 -87//-87
f -86//-86 -89//-89 -87//-87
f -85//-85 -84//-84 -83//-83
f -85//-85 -88//-88 -84//-84
f -88//-88 -89//-89 -84//-84
f -82//-82 -83//-83 -84//-84
f -81//-81 -80//-80 -79//-79
f -79//-79 -80//-80 -78//-78
f -77//-77 -76//-76 -75//-75
f -77//-77 -75//-75 -74//-74
f -74//-74 -75//-75 -73//-73
f -72//-72 -76//-76 -77//-77
f -71//-71 -70//-70 -69//-69
f -68//-68 -70//-70 -71//-71
f -67//-67 -66//-66 -71//-71
f -69//-69 -67//-67 -71//-71
f -73//-73 -65//-65 -64//-64
f -65//-65 -63//-63 -64//-64
f -68//-68 -62//-62 -70//-70
f -70//-70 -62//-62 -61//-61
f -64//-64 -63//-63 -60//-60
f -63//-63 -59//-59 -60//-60
f -62//-62 -58//-58 -61//-61
f -61//-61 -58//-58 -57//-57
f -60//-60 -59//-59 -56//-56
f -55//-55 -60//-60 -56//-56
f -54//-54 -55//-55 -53//-53
f -55//-55 -56//-56 -53//-53
f -52//-52 -54//-54 -51//-51
f -54//-54 -53//-53 -51//-51
f -57//-57 -58//-58 -52//-52
f -51//-51 -57//-57 -52//-52
f -50//-50 -49//-49 -48//-48
f -50//-50 -47//-47 -46//-46
f -49//-49 -50//-50 -46//-46
f -47//-47 -45//-45 -46//-46
f -44//-44 -43//-43 -42//-42
f -44//-44 -48//-48 -49//-49
f -44//-44 -49//-49 -43//-43
f -43//-43 -49//-49 -41//-41
f -46//-46 -40//-40 -39//-39
f -40//-40 -41//-41 -39//-39
f -45//-45 -38//-38 -40//-40
f -46//-46 -45//-45 -40//-40
f -37//-37 -36//-36 -35//-35
f -37//-37 -42//-42 -43//-43
f -37//-37 -43//-43 -36//-36
f -36//-36 -43//-43 -34//-34
f -41//-41 -33//-33 -32//-32
f -33//-33 -34//-34 -32//-32
f -31//-31 -30//-30 -33//-33
f -31//-31 -33//-33 -29//-29
f -29//-29 -33//-33 -28//-28
f -27//-27 -31//-31 -29//-29
f -26//-26 -25//-25 -24//-24
f -23//-23 -26//-26 -24//-24
f -22//-22 -21//-21 -26//-26
f -21//-21 -25//-25 -26//-26
f -20//-20 -19//-19 -22//-22
f -19//-19 -21//-21 -22//-22
f -18//-18 -17//-17 -19//-19
f -20//-20 -18//-18 -19//-19
f -25//-25 -16//-16 -15//-15
f -14//-14 -13//-13 -15//-15
f -21//-21 -12//-12 -13//-13
f -12//-12 -16//-16 -13//-13
f -19//-19 -11//-11 -10//-10
f -11//-11 -12//-12 -10//-10
f -17//-17 -9//-9 -11//-11
f -8//-8 -7//-7 -11//-11
f -15//-15 -6//-6 -5//-5
f -4//-4 -5//-5 -6//-6
f -12//-12 -4//-4 -6//-6
f -3//-3 -4//-4 -2//-2
f -1//-1 -3//-3 -2//-2
f -9//-9 -3//-3 -1//-1
