# Wavefront OBJ file export by VMD
# 
# Molecular graphics exported from VMD 1.9.3
# http://www.ks.uiuc.edu/Research/vmd/
# 
# Load Material Library paired with this scene:
mtllib guanine_surface_lowres.mtl
g vmd_mol4_rep0
# MoleculeID: 4 ReprID: 0 Beginning QuickSurf
v -0.383613 -0.711570 -0.260462
vn -0.6770 -0.6278 -0.3840
v -0.383613 -0.767352 -0.205433
vn -0.6678 -0.6879 -0.2844
v -0.452355 -0.711570 -0.205433
vn -0.7372 -0.6097 -0.2913
v -0.105026 -0.711570 -0.376758
vn -0.2463 -0.4958 -0.8328
v -0.105026 -0.895695 -0.205433
vn -0.2712 -0.9421 -0.1971
v 0.173561 -0.711570 -0.391301
vn 0.1762 -0.3387 -0.9242
v 0.173561 -0.922620 -0.205433
vn 0.1468 -0.9805 -0.1310
v 0.452148 -0.711570 -0.243123
vn 0.9375 -0.2450 -0.2472
v 0.452148 -0.751746 -0.205433
vn 0.9356 -0.3026 -0.1820
v 0.452148 -0.751746 -0.205433
vn 0.9356 -0.3026 -0.1820
v 0.487265 -0.711570 -0.205433
vn 0.9551 -0.2354 -0.1800
v -0.383613 -0.432983 -0.361758
vn -0.5658 -0.1119 -0.8169
v -0.383613 -0.711570 -0.260462
vn -0.6770 -0.6278 -0.3840
v -0.452355 -0.711570 -0.205433
vn -0.7372 -0.6097 -0.2913
v -0.564347 -0.432983 -0.205433
vn -0.9367 -0.0953 -0.3369
v -0.105026 -0.711570 -0.376758
vn -0.2463 -0.4958 -0.8328
v -0.105026 -0.432983 -0.412615
vn -0.0514 -0.0480 -0.9975
v 0.173561 -0.711570 -0.391301
vn 0.1762 -0.3387 -0.9242
v 0.173561 -0.432983 -0.390011
vn 0.3578 0.0758 -0.9307
v 0.429545 -0.432983 -0.205433
vn 0.9413 0.2445 -0.2327
v 0.452148 -0.572859 -0.205433
vn 0.9806 -0.0000 -0.1958
v 0.452148 -0.711570 -0.243123
vn 0.9375 -0.2450 -0.2472
v 0.487265 -0.711570 -0.205433
vn 0.9551 -0.2354 -0.1800
v -0.383613 -0.154396 -0.334968
vn -0.6132 0.2357 -0.7539
v -0.383613 -0.432983 -0.361758
vn -0.5658 -0.1119 -0.8169
v -0.564347 -0.432983 -0.205433
vn -0.9367 -0.0953 -0.3369
v -0.536647 -0.154396 -0.205433
vn -0.8846 0.2338 -0.4035
v -0.105026 -0.432983 -0.412615
vn -0.0514 -0.0480 -0.9975
v -0.105026 -0.154396 -0.397923
vn -0.0507 0.0573 -0.9971
v 0.173561 -0.432983 -0.390011
vn 0.3578 0.0758 -0.9307
v 0.173561 -0.154396 -0.368399
vn 0.4250 -0.1683 -0.8894
v 0.371727 -0.154396 -0.205433
vn 0.9204 -0.1182 -0.3727
v 0.429545 -0.432983 -0.205433
vn 0.9413 0.2445 -0.2327
v -0.383613 0.124191 -0.227042
vn -0.7803 0.3937 -0.4860
v -0.383613 -0.154396 -0.334968
vn -0.6132 0.2357 -0.7539
v -0.407428 0.124191 -0.205433
vn -0.7970 0.3931 -0.4585
v -0.536647 -0.154396 -0.205433
vn -0.8846 0.2338 -0.4035
v -0.105026 0.124191 -0.395144
vn -0.3158 0.1276 -0.9402
v -0.105026 -0.154396 -0.397923
vn -0.0507 0.0573 -0.9971
v 0.173561 0.124191 -0.428418
vn 0.1275 -0.0878 -0.9880
v 0.451261 0.124191 -0.205433
vn 0.9086 -0.2074 -0.3625
v 0.371727 -0.154396 -0.205433
vn 0.9204 -0.1182 -0.3727
v 0.173561 -0.154396 -0.368399
vn 0.4250 -0.1683 -0.8894
v -0.383613 0.124191 -0.227042
vn -0.7803 0.3937 -0.4860
v -0.383613 0.164605 -0.205433
vn -0.7712 0.3896 -0.5034
v -0.266013 0.402778 -0.205433
vn -0.5314 0.4302 -0.7298
v -0.105026 0.402778 -0.327020
vn -0.4252 0.4516 -0.7844
v -0.105026 0.124191 -0.395144
vn -0.3158 0.1276 -0.9402
v 0.173561 0.402778 -0.404161
vn 0.0631 0.3526 -0.9337
v 0.452148 0.134554 -0.205433
vn 0.9098 -0.1944 -0.3666
v 0.451261 0.124191 -0.205433
vn 0.9086 -0.2074 -0.3625
v 0.173561 0.124191 -0.428418
vn 0.1275 -0.0878 -0.9880
v 0.452148 0.402778 -0.253667
vn 0.7929 0.2243 -0.5665
v 0.503779 0.402778 -0.205433
vn 0.8426 0.2195 -0.4918
v -0.105026 0.542262 -0.205433
vn -0.3375 0.6036 -0.7223
v 0.173561 0.615313 -0.205433
vn 0.0541 0.8609 -0.5060
v 0.452148 0.461659 -0.205433
vn 0.7993 0.3138 -0.5125
v -0.383613 -0.767352 -0.205433
vn -0.6678 -0.6879 -0.2844
v -0.383613 -0.711570 0.073016
vn -0.5463 -0.7059 0.4508
v -0.452355 -0.711570 -0.205433
vn -0.7372 -0.6097 -0.2913
v -0.383566 -0.711570 0.073154
vn -0.5460 -0.7059 0.4512
v -0.105026 -0.827808 0.073154
vn -0.1132 -0.8386 0.5328
v -0.105026 -0.895695 -0.205433
vn -0.2712 -0.9421 -0.1971
v 0.173561 -0.922620 -0.205433
vn 0.1468 -0.9805 -0.1310
v 0.173561 -0.812918 0.073154
vn 0.2470 -0.6989 0.6712
v 0.452148 -0.711570 -0.128587
vn 0.9628 -0.2685 -0.0312
v 0.341162 -0.711570 0.073154
vn 0.5411 -0.4756 0.6935
v 0.452148 -0.751746 -0.205433
vn 0.9356 -0.3026 -0.1820
v 0.452148 -0.751746 -0.205433
vn 0.9356 -0.3026 -0.1820
v 0.487265 -0.711570 -0.205433
vn 0.9551 -0.2354 -0.1800
v -0.383613 -0.711570 0.073016
vn -0.5463 -0.7059 0.4508
v -0.383613 -0.711534 0.073154
vn -0.5462 -0.7058 0.4512
v -0.549507 -0.432983 0.073154
vn -0.8826 -0.1849 0.4322
v -0.452355 -0.711570 -0.205433
vn -0.7372 -0.6097 -0.2913
v -0.564347 -0.432983 -0.205433
vn -0.9367 -0.0953 -0.3369
v -0.383566 -0.711570 0.073154
vn -0.5460 -0.7059 0.4512
v 0.452148 -0.572859 -0.205433
vn 0.9806 -0.0000 -0.1958
v 0.341162 -0.711570 0.073154
vn 0.5411 -0.4756 0.6935
v 0.452148 -0.711570 -0.128587
vn 0.9628 -0.2685 -0.0312
v 0.429545 -0.432983 -0.205433
vn 0.9413 0.2445 -0.2327
v 0.377675 -0.432983 0.073154
vn 0.8610 -0.0392 0.5071
v 0.487265 -0.711570 -0.205433
vn 0.9551 -0.2354 -0.1800
v -0.549507 -0.432983 0.073154
vn -0.8826 -0.1849 0.4322
v -0.536647 -0.154396 -0.205433
vn -0.8846 0.2338 -0.4035
v -0.548774 -0.154396 0.073154
vn -0.9349 0.1033 0.3394
v 0.371727 -0.154396 -0.205433
vn 0.9204 -0.1182 -0.3727
v 0.374748 -0.154396 0.073154
vn 0.8754 -0.3811 0.2975
v -0.407428 0.124191 -0.205433
vn -0.7970 0.3931 -0.4585
v -0.498033 0.124191 0.073154
vn -0.9823 -0.0292 0.1848
v 0.452148 0.011485 0.073154
vn 0.9465 -0.2968 0.1271
v 0.451261 0.124191 -0.205433
vn 0.9086 -0.2074 -0.3625
v 0.452148 0.124191 -0.199953
vn 0.9128 -0.2102 -0.3502
v 0.532411 0.124191 0.073154
vn 0.9574 -0.2668 0.1107
v -0.383613 0.402778 -0.111145
vn -0.7812 0.1848 -0.5963
v -0.383613 0.164605 -0.205433
vn -0.7712 0.3896 -0.5034
v -0.576260 0.402778 0.073154
vn -0.9894 -0.1036 -0.1021
v -0.266013 0.402778 -0.205433
vn -0.5314 0.4302 -0.7298
v 0.452148 0.134554 -0.205433
vn 0.9098 -0.1944 -0.3666
v 0.503779 0.402778 -0.205433
vn 0.8426 0.2195 -0.4918
v 0.573571 0.402778 0.073154
vn 0.9725 0.1986 0.1213
v -0.383613 0.681365 -0.068812
vn -0.4260 0.6372 -0.6422
v -0.535333 0.681365 0.073154
vn -0.7937 0.5865 -0.1617
v -0.105026 0.681365 -0.073944
vn 0.0987 0.8649 -0.4921
v -0.105026 0.542262 -0.205433
vn -0.3375 0.6036 -0.7223
v -0.383613 0.402778 -0.111145
vn -0.7812 0.1848 -0.5963
v 0.167080 0.681365 0.073154
vn 0.3292 0.9441 0.0152
v 0.173561 0.679732 0.073154
vn 0.3317 0.9432 0.0205
v 0.173561 0.615313 -0.205433
vn 0.0541 0.8609 -0.5060
v 0.452148 0.461659 -0.205433
vn 0.7993 0.3138 -0.5125
v 0.452148 0.544638 0.073154
vn 0.8591 0.4912 0.1437
v 0.573571 0.402778 0.073154
vn 0.9725 0.1986 0.1213
v 0.503779 0.402778 -0.205433
vn 0.8426 0.2195 -0.4918
v -0.383613 0.681365 -0.068812
vn -0.4260 0.6372 -0.6422
v -0.535333 0.681365 0.073154
vn -0.7937 0.5865 -0.1617
v -0.383613 0.808487 0.073154
vn -0.4289 0.8838 -0.1867
v -0.105026 0.681365 -0.073944
vn 0.0987 0.8649 -0.4921
v -0.105026 0.823255 0.073154
vn 0.1781 0.9635 -0.2000
v 0.167080 0.681365 0.073154
vn 0.3292 0.9441 0.0152
v -0.105026 -0.827808 0.073154
vn -0.1132 -0.8386 0.5328
v -0.105026 -0.711570 0.189392
vn -0.1177 -0.6192 0.7763
v -0.383566 -0.711570 0.073154
vn -0.5460 -0.7059 0.4512
v 0.173561 -0.812918 0.073154
vn 0.2470 -0.6989 0.6712
v 0.173561 -0.711570 0.174503
vn 0.2504 -0.5030 0.8272
v 0.341162 -0.711570 0.073154
vn 0.5411 -0.4756 0.6935
v -0.383613 -0.711534 0.073154
vn -0.5462 -0.7058 0.4512
v -0.383613 -0.432983 0.208827
vn -0.5414 -0.2226 0.8107
v -0.549507 -0.432983 0.073154
vn -0.8826 -0.1849 0.4322
v -0.105026 -0.432983 0.259126
vn -0.0261 -0.2107 0.9772
v 0.173561 -0.432983 0.225046
vn 0.4122 -0.1927 0.8905
v -0.105026 -0.711570 0.189392
vn -0.1177 -0.6192 0.7763
v 0.377675 -0.432983 0.073154
vn 0.8610 -0.0392 0.5071
v -0.383613 -0.154396 0.219430
vn -0.6318 0.0069 0.7751
v -0.548774 -0.154396 0.073154
vn -0.9349 0.1033 0.3394
v -0.105026 -0.154396 0.279816
vn -0.0558 -0.3689 0.9278
v 0.173561 -0.154396 0.253682
vn 0.3486 -0.5708 0.7434
v 0.374748 -0.154396 0.073154
vn 0.8754 -0.3811 0.2975
v -0.383613 0.124191 0.200107
vn -0.9030 -0.1448 0.4044
v -0.498033 0.124191 0.073154
vn -0.9823 -0.0292 0.1848
v -0.227713 0.124191 0.351741
vn -0.4159 -0.5110 0.7523
v -0.105026 0.011950 0.351741
vn -0.2185 -0.5082 0.8331
v 0.173561 -0.011772 0.351741
vn 0.1560 -0.5116 0.8450
v 0.452148 0.124191 0.190863
vn 0.9211 -0.2882 0.2619
v 0.338413 0.124191 0.351741
vn 0.4673 -0.3993 0.7888
v 0.452148 0.011485 0.073154
vn 0.9465 -0.2968 0.1271
v 0.173561 -0.154396 0.253682
vn 0.3486 -0.5708 0.7434
v 0.374748 -0.154396 0.073154
vn 0.8754 -0.3811 0.2975
v 0.532411 0.124191 0.073154
vn 0.9574 -0.2668 0.1107
v -0.383613 0.124191 0.200107
vn -0.9030 -0.1448 0.4044
v -0.383613 0.380367 0.351741
vn -0.7670 -0.2125 0.6055
v -0.404814 0.402778 0.351741
vn -0.7773 -0.1984 0.5971
v -0.498033 0.124191 0.073154
vn -0.9823 -0.0292 0.1848
v -0.576260 0.402778 0.073154
vn -0.9894 -0.1036 -0.1021
v -0.227713 0.124191 0.351741
vn -0.4159 -0.5110 0.7523
v 0.452148 0.402778 0.256273
vn 0.8961 0.2031 0.3947
v 0.338413 0.124191 0.351741
vn 0.4673 -0.3993 0.7888
v 0.452148 0.124191 0.190863
vn 0.9211 -0.2882 0.2619
v 0.397182 0.402778 0.351741
vn 0.7322 0.2002 0.6510
v 0.532411 0.124191 0.073154
vn 0.9574 -0.2668 0.1107
v 0.573571 0.402778 0.073154
vn 0.9725 0.1986 0.1213
v -0.383613 0.528958 0.351741
vn -0.7043 0.0310 0.7093
v -0.383613 0.681365 0.323455
vn -0.4936 0.5048 0.7082
v -0.535333 0.681365 0.073154
vn -0.7937 0.5865 -0.1617
v -0.404814 0.402778 0.351741
vn -0.7773 -0.1984 0.5971
v -0.576260 0.402778 0.073154
vn -0.9894 -0.1036 -0.1021
v -0.299428 0.681365 0.351741
vn -0.2257 0.6294 0.7436
v 0.173561 0.679732 0.073154
vn 0.3317 0.9432 0.0205
v -0.043671 0.681365 0.351741
vn 0.2223 0.8276 0.5155
v 0.173561 0.598534 0.351741
vn 0.4551 0.6748 0.5810
v 0.167080 0.681365 0.073154
vn 0.3292 0.9441 0.0152
v 0.397182 0.402778 0.351741
vn 0.7322 0.2002 0.6510
v 0.452148 0.402778 0.256273
vn 0.8961 0.2031 0.3947
v 0.452148 0.544638 0.073154
vn 0.8591 0.4912 0.1437
v 0.573571 0.402778 0.073154
vn 0.9725 0.1986 0.1213
v -0.535333 0.681365 0.073154
vn -0.7937 0.5865 -0.1617
v -0.383613 0.681365 0.323455
vn -0.4936 0.5048 0.7082
v -0.383613 0.808487 0.073154
vn -0.4289 0.8838 -0.1867
v -0.299428 0.681365 0.351741
vn -0.2257 0.6294 0.7436
v -0.105026 0.729266 0.351741
vn 0.1675 0.8286 0.5343
v -0.105026 0.823255 0.073154
vn 0.1781 0.9635 -0.2000
v -0.043671 0.681365 0.351741
vn 0.2223 0.8276 0.5155
v 0.167080 0.681365 0.073154
vn 0.3292 0.9441 0.0152
v -0.105026 0.011950 0.351741
vn -0.2185 -0.5082 0.8331
v -0.105026 0.124191 0.451946
vn -0.2730 -0.4881 0.8290
v -0.227713 0.124191 0.351741
vn -0.4159 -0.5110 0.7523
v 0.173561 -0.011772 0.351741
vn 0.1560 -0.5116 0.8450
v 0.173561 0.124191 0.472599
vn 0.1790 -0.3893 0.9036
v 0.338413 0.124191 0.351741
vn 0.4673 -0.3993 0.7888
v -0.383613 0.380367 0.351741
vn -0.7670 -0.2125 0.6055
v -0.383613 0.402778 0.368674
vn -0.7655 -0.1966 0.6126
v -0.404814 0.402778 0.351741
vn -0.7773 -0.1984 0.5971
v -0.105026 0.402778 0.539756
vn -0.1813 0.0433 0.9825
v 0.173561 0.402778 0.527300
vn 0.2784 0.1625 0.9466
v -0.105026 0.124191 0.451946
vn -0.2730 -0.4881 0.8290
v 0.397182 0.402778 0.351741
vn 0.7322 0.2002 0.6510
v -0.383613 0.528958 0.351741
vn -0.7043 0.0310 0.7093
v -0.299428 0.681365 0.351741
vn -0.2257 0.6294 0.7436
v -0.105026 0.681365 0.393067
vn 0.1648 0.7873 0.5941
v 0.173561 0.598534 0.351741
vn 0.4551 0.6748 0.5810
v -0.043671 0.681365 0.351741
vn 0.2223 0.8276 0.5155
v -0.105026 0.729266 0.351741
vn 0.1675 0.8286 0.5343
usemtl vmd_mat_cindex_2
f -200//-200 -199//-199 -198//-198
usemtl vmd_mat_cindex_15
f -200//-200 -197//-197 -196//-196
f -199//-199 -200//-200 -196//-196
usemtl vmd_mat_cindex_866
f -197//-197 -195//-195 -194//-194
usemtl vmd_mat_cindex_850
f -196//-196 -197//-197 -194//-194
usemtl vmd_mat_cindex_844
f -195//-195 -193//-193 -192//-192
usemtl vmd_mat_cindex_849
f -194//-194 -195//-195 -192//-192
usemtl vmd_mat_cindex_820
f -191//-191 -193//-193 -190//-190
usemtl vmd_mat_cindex_2
f -189//-189 -188//-188 -187//-187
f -186//-186 -189//-189 -187//-187
usemtl vmd_mat_cindex_15
f -185//-185 -188//-188 -184//-184
f -184//-184 -188//-188 -189//-189
usemtl vmd_mat_cindex_904
f -183//-183 -185//-185 -182//-182
usemtl vmd_mat_cindex_915
f -182//-182 -185//-185 -184//-184
usemtl vmd_mat_cindex_857
f -181//-181 -180//-180 -179//-179
usemtl vmd_mat_cindex_892
f -181//-181 -179//-179 -182//-182
usemtl vmd_mat_cindex_888
f -182//-182 -179//-179 -183//-183
usemtl vmd_mat_cindex_829
f -178//-178 -179//-179 -180//-180
usemtl vmd_mat_cindex_15
f -177//-177 -176//-176 -175//-175
usemtl vmd_mat_cindex_23
f -174//-174 -177//-177 -175//-175
usemtl vmd_mat_cindex_15
f -173//-173 -176//-176 -172//-172
usemtl vmd_mat_cindex_23
f -172//-172 -176//-176 -177//-177
usemtl vmd_mat_cindex_924
f -171//-171 -173//-173 -170//-170
usemtl vmd_mat_cindex_10
f -170//-170 -173//-173 -172//-172
usemtl vmd_mat_cindex_911
f -169//-169 -168//-168 -171//-171
usemtl vmd_mat_cindex_909
f -170//-170 -169//-169 -171//-171
usemtl vmd_mat_cindex_922
f -167//-167 -166//-166 -174//-174
usemtl vmd_mat_cindex_888
f -165//-165 -167//-167 -164//-164
usemtl vmd_mat_cindex_10
f -172//-172 -166//-166 -163//-163
f -163//-163 -166//-166 -167//-167
f -170//-170 -162//-162 -161//-161
f -161//-161 -162//-162 -163//-163
usemtl vmd_mat_cindex_15
f -160//-160 -159//-159 -158//-158
f -161//-161 -160//-160 -158//-158
f -157//-157 -165//-165 -156//-156
usemtl vmd_mat_cindex_6
f -156//-156 -155//-155 -154//-154
usemtl vmd_mat_cindex_15
f -156//-156 -154//-154 -157//-157
f -157//-157 -154//-154 -153//-153
f -161//-161 -153//-153 -152//-152
usemtl vmd_mat_cindex_6
f -152//-152 -153//-153 -154//-154
f -151//-151 -150//-150 -149//-149
f -151//-151 -149//-149 -148//-148
f -148//-148 -149//-149 -152//-152
f -151//-151 -148//-148 -147//-147
f -154//-154 -155//-155 -146//-146
f -152//-152 -154//-154 -146//-146
f -145//-145 -152//-152 -146//-146
f -148//-148 -152//-152 -145//-145
f -144//-144 -148//-148 -145//-145
usemtl vmd_mat_cindex_5
f -147//-147 -148//-148 -144//-144
usemtl vmd_mat_cindex_2
f -143//-143 -142//-142 -141//-141
f -140//-140 -142//-142 -143//-143
usemtl vmd_mat_cindex_15
f -140//-140 -143//-143 -139//-139
f -139//-139 -143//-143 -138//-138
usemtl vmd_mat_cindex_860
f -137//-137 -136//-136 -138//-138
usemtl vmd_mat_cindex_877
f -138//-138 -136//-136 -139//-139
usemtl vmd_mat_cindex_870
f -135//-135 -134//-134 -136//-136
usemtl vmd_mat_cindex_849
f -135//-135 -136//-136 -133//-133
usemtl vmd_mat_cindex_853
f -133//-133 -136//-136 -137//-137
usemtl vmd_mat_cindex_821
f -132//-132 -131//-131 -135//-135
usemtl vmd_mat_cindex_2
f -130//-130 -129//-129 -128//-128
f -130//-130 -128//-128 -127//-127
f -127//-127 -128//-128 -126//-126
f -125//-125 -129//-129 -130//-130
usemtl vmd_mat_cindex_852
f -124//-124 -123//-123 -122//-122
usemtl vmd_mat_cindex_878
f -124//-124 -121//-121 -123//-123
usemtl vmd_mat_cindex_914
f -121//-121 -120//-120 -123//-123
usemtl vmd_mat_cindex_830
f -119//-119 -124//-124 -122//-122
usemtl vmd_mat_cindex_15
f -126//-126 -118//-118 -117//-117
usemtl vmd_mat_cindex_23
f -118//-118 -116//-116 -117//-117
usemtl vmd_mat_cindex_912
f -121//-121 -115//-115 -120//-120
usemtl vmd_mat_cindex_909
f -120//-120 -115//-115 -114//-114
usemtl vmd_mat_cindex_926
f -117//-117 -116//-116 -113//-113
usemtl vmd_mat_cindex_15
f -116//-116 -112//-112 -113//-113
usemtl vmd_mat_cindex_6
f -111//-111 -110//-110 -109//-109
f -111//-111 -114//-114 -110//-110
usemtl vmd_mat_cindex_15
f -114//-114 -115//-115 -110//-110
usemtl vmd_mat_cindex_6
f -111//-111 -109//-109 -108//-108
usemtl vmd_mat_cindex_15
f -107//-107 -106//-106 -113//-113
usemtl vmd_mat_cindex_5
f -107//-107 -113//-113 -105//-105
usemtl vmd_mat_cindex_6
f -105//-105 -113//-113 -112//-112
f -106//-106 -107//-107 -104//-104
f -110//-110 -103//-103 -109//-109
f -109//-109 -103//-103 -102//-102
f -109//-109 -102//-102 -108//-108
f -108//-108 -102//-102 -101//-101
usemtl vmd_mat_cindex_63
f -100//-100 -107//-107 -105//-105
usemtl vmd_mat_cindex_50
f -99//-99 -100//-100 -105//-105
usemtl vmd_mat_cindex_6
f -104//-104 -98//-98 -97//-97
usemtl vmd_mat_cindex_162
f -104//-104 -96//-96 -98//-98
usemtl vmd_mat_cindex_31
f -96//-96 -100//-100 -98//-98
usemtl vmd_mat_cindex_6
f -95//-95 -97//-97 -98//-98
f -95//-95 -94//-94 -97//-97
f -94//-94 -93//-93 -97//-97
f -92//-92 -93//-93 -91//-91
f -93//-93 -94//-94 -91//-91
usemtl vmd_mat_cindex_5
f -90//-90 -89//-89 -92//-92
usemtl vmd_mat_cindex_6
f -91//-91 -90//-90 -92//-92
usemtl vmd_mat_cindex_47
f -88//-88 -87//-87 -86//-86
usemtl vmd_mat_cindex_31
f -85//-85 -88//-88 -86//-86
usemtl vmd_mat_cindex_84
f -84//-84 -85//-85 -86//-86
usemtl vmd_mat_cindex_5
f -83//-83 -85//-85 -84//-84
usemtl vmd_mat_cindex_15
f -82//-82 -81//-81 -80//-80
usemtl vmd_mat_cindex_897
f -82//-82 -79//-79 -78//-78
usemtl vmd_mat_cindex_893
f -81//-81 -82//-82 -78//-78
usemtl vmd_mat_cindex_896
f -79//-79 -77//-77 -78//-78
usemtl vmd_mat_cindex_15
f -76//-76 -75//-75 -74//-74
f -76//-76 -80//-80 -81//-81
f -76//-76 -81//-81 -75//-75
f -75//-75 -81//-81 -73//-73
usemtl vmd_mat_cindex_921
f -78//-78 -72//-72 -71//-71
usemtl vmd_mat_cindex_933
f -72//-72 -73//-73 -71//-71
usemtl vmd_mat_cindex_937
f -77//-77 -70//-70 -72//-72
usemtl vmd_mat_cindex_919
f -78//-78 -77//-77 -72//-72
usemtl vmd_mat_cindex_23
f -75//-75 -69//-69 -68//-68
usemtl vmd_mat_cindex_15
f -74//-74 -75//-75 -68//-68
f -73//-73 -67//-67 -75//-75
usemtl vmd_mat_cindex_23
f -67//-67 -69//-69 -75//-75
usemtl vmd_mat_cindex_937
f -72//-72 -66//-66 -73//-73
usemtl vmd_mat_cindex_15
f -66//-66 -67//-67 -73//-73
f -70//-70 -65//-65 -66//-66
usemtl vmd_mat_cindex_942
f -72//-72 -70//-70 -66//-66
usemtl vmd_mat_cindex_15
f -69//-69 -64//-64 -63//-63
usemtl vmd_mat_cindex_916
f -68//-68 -69//-69 -63//-63
usemtl vmd_mat_cindex_15
f -62//-62 -67//-67 -61//-61
f -62//-62 -64//-64 -67//-67
f -64//-64 -69//-69 -67//-67
f -66//-66 -61//-61 -67//-67
usemtl vmd_mat_cindex_6
f -60//-60 -61//-61 -66//-66
f -59//-59 -58//-58 -60//-60
f -57//-57 -59//-59 -60//-60
f -57//-57 -60//-60 -56//-56
usemtl vmd_mat_cindex_15
f -57//-57 -56//-56 -55//-55
usemtl vmd_mat_cindex_6
f -57//-57 -54//-54 -59//-59
f -53//-53 -52//-52 -51//-51
f -53//-53 -51//-51 -50//-50
usemtl vmd_mat_cindex_5
f -50//-50 -51//-51 -49//-49
usemtl vmd_mat_cindex_6
f -48//-48 -52//-52 -53//-53
f -47//-47 -46//-46 -45//-45
f -44//-44 -46//-46 -47//-47
f -43//-43 -42//-42 -47//-47
f -45//-45 -43//-43 -47//-47
usemtl vmd_mat_cindex_31
f -41//-41 -40//-40 -39//-39
f -41//-41 -39//-39 -38//-38
f -38//-38 -39//-39 -37//-37
f -41//-41 -36//-36 -40//-40
usemtl vmd_mat_cindex_6
f -35//-35 -34//-34 -33//-33
f -32//-32 -34//-34 -35//-35
f -31//-31 -30//-30 -29//-29
f -31//-31 -29//-29 -33//-33
f -33//-33 -29//-29 -35//-35
f -28//-28 -29//-29 -30//-30
usemtl vmd_mat_cindex_31
f -27//-27 -26//-26 -25//-25
usemtl vmd_mat_cindex_5
f -26//-26 -24//-24 -23//-23
usemtl vmd_mat_cindex_31
f -26//-26 -23//-23 -25//-25
usemtl vmd_mat_cindex_107
f -25//-25 -23//-23 -22//-22
usemtl vmd_mat_cindex_6
f -21//-21 -20//-20 -22//-22
usemtl vmd_mat_cindex_163
f -23//-23 -21//-21 -22//-22
usemtl vmd_mat_cindex_6
f -19//-19 -18//-18 -17//-17
f -19//-19 -16//-16 -15//-15
f -18//-18 -19//-19 -15//-15
f -16//-16 -14//-14 -15//-15
usemtl vmd_mat_cindex_5
f -13//-13 -12//-12 -11//-11
usemtl vmd_mat_cindex_6
f -13//-13 -17//-17 -18//-18
usemtl vmd_mat_cindex_5
f -13//-13 -18//-18 -12//-12
usemtl vmd_mat_cindex_6
f -12//-12 -18//-18 -10//-10
f -15//-15 -9//-9 -8//-8
f -9//-9 -10//-10 -8//-8
f -14//-14 -7//-7 -9//-9
f -15//-15 -14//-14 -9//-9
usemtl vmd_mat_cindex_5
f -11//-11 -12//-12 -6//-6
f -5//-5 -6//-6 -12//-12
f -5//-5 -12//-12 -4//-4
usemtl vmd_mat_cindex_6
f -4//-4 -12//-12 -10//-10
f -3//-3 -2//-2 -4//-4
f -3//-3 -4//-4 -9//-9
f -9//-9 -4//-4 -10//-10
usemtl vmd_mat_cindex_740
f -7//-7 -3//-3 -9//-9
usemtl vmd_mat_cindex_5
f -5//-5 -4//-4 -1//-1
usemtl vmd_mat_cindex_198
f -2//-2 -1//-1 -4//-4
