# Wavefront OBJ file export by VMD
# 
# Molecular graphics exported from VMD 1.9.3
# http://www.ks.uiuc.edu/Research/vmd/
# 
# Load Material Library paired with this scene:
mtllib thymine_surface_lowres.mtl
g vmd_mol2_rep0
# MoleculeID: 2 ReprID: 0 Beginning QuickSurf
v -0.560177 -0.669077 -0.328646
vn -0.6372 -0.6264 -0.4489
v -0.560177 -0.731411 -0.276297
vn -0.6324 -0.6734 -0.3829
v -0.619175 -0.669077 -0.276297
vn -0.6761 -0.6305 -0.3812
v -0.214726 -0.669077 -0.472884
vn -0.1316 -0.4301 -0.8931
v -0.214726 -0.902726 -0.276297
vn -0.1123 -0.9219 -0.3707
v 0.130724 -0.669077 -0.446681
vn 0.3312 -0.5533 -0.7643
v 0.130724 -0.863356 -0.276297
vn 0.3488 -0.8677 -0.3541
v -0.214726 -0.902726 -0.276297
vn -0.1123 -0.9219 -0.3707
v 0.386343 -0.669077 -0.276297
vn 0.6628 -0.6682 -0.3378
v -0.560177 -0.323627 -0.474088
vn -0.3600 -0.0377 -0.9322
v -0.560177 -0.669077 -0.328646
vn -0.6372 -0.6264 -0.4489
v -0.824001 -0.323627 -0.276297
vn -0.8755 -0.0791 -0.4767
v -0.619175 -0.669077 -0.276297
vn -0.6761 -0.6305 -0.3812
v -0.214726 -0.669077 -0.472884
vn -0.1316 -0.4301 -0.8931
v -0.214726 -0.323627 -0.505278
vn -0.0747 0.0172 -0.9971
v 0.130724 -0.669077 -0.446681
vn 0.3312 -0.5533 -0.7643
v 0.130724 -0.323627 -0.507369
vn 0.1412 -0.2234 -0.9644
v 0.476175 -0.543955 -0.276297
vn 0.7618 -0.5624 -0.3216
v 0.386343 -0.669077 -0.276297
vn 0.6628 -0.6682 -0.3378
v 0.476175 -0.323627 -0.406147
vn 0.6678 -0.4735 -0.5743
v 0.606025 -0.323627 -0.276297
vn 0.8283 -0.4459 -0.3393
v -0.560177 0.021824 -0.379608
vn -0.4568 0.5264 -0.7171
v -0.560177 -0.323627 -0.474088
vn -0.3600 -0.0377 -0.9322
v -0.824001 -0.323627 -0.276297
vn -0.8755 -0.0791 -0.4767
v -0.694778 0.021824 -0.276297
vn -0.6134 0.5523 -0.5645
v -0.214726 -0.323627 -0.505278
vn -0.0747 0.0172 -0.9971
v -0.214726 0.021824 -0.459320
vn -0.3771 0.3384 -0.8622
v 0.130724 -0.323627 -0.507369
vn 0.1412 -0.2234 -0.9644
v 0.130724 0.021824 -0.547375
vn -0.0840 -0.0043 -0.9965
v 0.476175 -0.323627 -0.406147
vn 0.6678 -0.4735 -0.5743
v 0.476175 0.021824 -0.515934
vn 0.3969 -0.1054 -0.9118
v 0.716400 0.021824 -0.276297
vn 0.9014 -0.1897 -0.3893
v 0.606025 -0.323627 -0.276297
vn 0.8283 -0.4459 -0.3393
v -0.560177 0.021824 -0.379608
vn -0.4568 0.5264 -0.7171
v -0.694778 0.021824 -0.276297
vn -0.6134 0.5523 -0.5645
v -0.560177 0.153340 -0.276297
vn -0.4807 0.6108 -0.6292
v -0.214726 0.021824 -0.459320
vn -0.3771 0.3384 -0.8622
v -0.214726 0.302866 -0.276297
vn -0.5179 0.4766 -0.7104
v -0.157872 0.367274 -0.276297
vn -0.4834 0.5071 -0.7136
v 0.130724 0.367274 -0.490318
vn -0.2057 0.4412 -0.8735
v 0.130724 0.021824 -0.547375
vn -0.0840 -0.0043 -0.9965
v 0.476175 0.021824 -0.515934
vn 0.3969 -0.1054 -0.9118
v 0.476175 0.367274 -0.482996
vn 0.2784 0.3669 -0.8876
v 0.733363 0.367274 -0.276297
vn 0.8031 0.2662 -0.5331
v 0.716400 0.021824 -0.276297
vn 0.9014 -0.1897 -0.3893
v 0.130724 0.594271 -0.276297
vn -0.1559 0.7613 -0.6293
v 0.476175 0.597673 -0.276297
vn 0.2514 0.7970 -0.5491
v 0.476175 0.597673 -0.276297
vn 0.2514 0.7970 -0.5491
v -0.560177 -0.731411 -0.276297
vn -0.6324 -0.6734 -0.3829
v -0.560177 -0.768457 0.069154
vn -0.5300 -0.7952 0.2946
v -0.660510 -0.669077 0.069154
vn -0.6224 -0.7285 0.2862
v -0.619175 -0.669077 -0.276297
vn -0.6761 -0.6305 -0.3812
v -0.214726 -0.902726 -0.276297
vn -0.1123 -0.9219 -0.3707
v -0.214726 -0.897459 0.069154
vn -0.0759 -0.9238 0.3753
v 0.130724 -0.863356 -0.276297
vn 0.3488 -0.8677 -0.3541
v 0.130724 -0.853105 0.069154
vn 0.3419 -0.8626 0.3729
v -0.214726 -0.902726 -0.276297
vn -0.1123 -0.9219 -0.3707
v 0.386343 -0.669077 -0.276297
vn 0.6628 -0.6682 -0.3378
v 0.376785 -0.669077 0.069154
vn 0.6309 -0.6911 0.3526
v -0.824001 -0.323627 -0.276297
vn -0.8755 -0.0791 -0.4767
v -0.660510 -0.669077 0.069154
vn -0.6224 -0.7285 0.2862
v -0.864861 -0.323627 0.069154
vn -0.9722 -0.1024 0.2106
v 0.476175 -0.541533 0.069154
vn 0.7306 -0.6183 0.2897
v 0.476175 -0.543955 -0.276297
vn 0.7618 -0.5624 -0.3216
v 0.606025 -0.323627 -0.276297
vn 0.8283 -0.4459 -0.3393
v 0.609996 -0.323627 0.069154
vn 0.7901 -0.5506 0.2695
v -0.694778 0.021824 -0.276297
vn -0.6134 0.5523 -0.5645
v -0.792351 0.021824 0.069154
vn -0.8934 0.3884 0.2258
v 0.716400 0.021824 -0.276297
vn 0.9014 -0.1897 -0.3893
v 0.751522 0.021824 0.069154
vn 0.9583 -0.2636 0.1101
v -0.560177 0.367274 0.010339
vn -0.8529 0.5025 -0.1419
v -0.560177 0.153340 -0.276297
vn -0.4807 0.6108 -0.6292
v -0.694778 0.021824 -0.276297
vn -0.6134 0.5523 -0.5645
v -0.608304 0.367274 0.069154
vn -0.8889 0.4529 -0.0689
v -0.214726 0.367274 -0.230656
vn -0.5773 0.4726 -0.6659
v -0.214726 0.302866 -0.276297
vn -0.5179 0.4766 -0.7104
v -0.157872 0.367274 -0.276297
vn -0.4834 0.5071 -0.7136
v 0.733363 0.367274 -0.276297
vn 0.8031 0.2662 -0.5331
v 0.789484 0.367274 0.069154
vn 0.9843 0.1372 0.1113
v -0.560177 0.535293 0.069154
vn -0.8703 0.4853 -0.0839
v -0.510069 0.712725 0.069154
vn -0.7773 0.6134 -0.1396
v -0.214726 0.712725 -0.131040
vn -0.1420 0.7023 -0.6976
v -0.560177 0.367274 0.010339
vn -0.8529 0.5025 -0.1419
v 0.130724 0.712725 -0.051643
vn 0.2213 0.9417 -0.2534
v 0.130724 0.594271 -0.276297
vn -0.1559 0.7613 -0.6293
v -0.214726 0.367274 -0.230656
vn -0.5773 0.4726 -0.6659
v 0.321658 0.712725 0.069154
vn 0.3208 0.9466 -0.0333
v 0.476175 0.675086 0.069154
vn 0.3915 0.9169 0.0781
v 0.476175 0.597673 -0.276297
vn 0.2514 0.7970 -0.5491
v 0.789484 0.367274 0.069154
vn 0.9843 0.1372 0.1113
v 0.733363 0.367274 -0.276297
vn 0.8031 0.2662 -0.5331
v 0.476175 0.597673 -0.276297
vn 0.2514 0.7970 -0.5491
v -0.214726 0.712725 -0.131040
vn -0.1420 0.7023 -0.6976
v -0.510069 0.712725 0.069154
vn -0.7773 0.6134 -0.1396
v -0.214726 0.903377 0.069154
vn -0.1308 0.9712 -0.1992
v 0.130724 0.712725 -0.051643
vn 0.2213 0.9417 -0.2534
v -0.214726 0.903377 0.069154
vn -0.1308 0.9712 -0.1992
v 0.130724 0.813922 0.069154
vn 0.2887 0.9472 -0.1391
v 0.321658 0.712725 0.069154
vn 0.3208 0.9466 -0.0333
v -0.560177 -0.768457 0.069154
vn -0.5300 -0.7952 0.2946
v -0.560177 -0.669077 0.155002
vn -0.5324 -0.7444 0.4030
v -0.660510 -0.669077 0.069154
vn -0.6224 -0.7285 0.2862
v -0.214726 -0.897459 0.069154
vn -0.0759 -0.9238 0.3753
v -0.214726 -0.669077 0.266357
vn -0.0913 -0.5262 0.8454
v 0.130724 -0.853105 0.069154
vn 0.3419 -0.8626 0.3729
v 0.130724 -0.669077 0.234335
vn 0.3256 -0.6197 0.7141
v 0.376785 -0.669077 0.069154
vn 0.6309 -0.6911 0.3526
v -0.560177 -0.323627 0.338247
vn -0.2501 -0.1131 0.9616
v -0.864861 -0.323627 0.069154
vn -0.9722 -0.1024 0.2106
v -0.214726 -0.323627 0.335424
vn 0.0318 -0.2432 0.9695
v -0.560177 -0.669077 0.155002
vn -0.5324 -0.7444 0.4030
v 0.130724 -0.323627 0.326056
vn 0.1431 -0.5648 0.8127
v 0.476175 -0.541533 0.069154
vn 0.7306 -0.6183 0.2897
v 0.476175 -0.323627 0.216869
vn 0.5976 -0.6495 0.4701
v 0.609996 -0.323627 0.069154
vn 0.7901 -0.5506 0.2695
v -0.560177 0.021824 0.272110
vn -0.6309 0.2929 0.7185
v -0.792351 0.021824 0.069154
vn -0.8934 0.3884 0.2258
v -0.560177 -0.323627 0.338247
vn -0.2501 -0.1131 0.9616
v -0.214726 0.021824 0.378931
vn -0.5099 -0.2835 0.8122
v -0.147307 0.021824 0.414604
vn -0.3935 -0.3800 0.8371
v 0.130724 -0.179273 0.414604
vn -0.0312 -0.5441 0.8384
v 0.130724 -0.323627 0.326056
vn 0.1431 -0.5648 0.8127
v -0.214726 -0.323627 0.335424
vn 0.0318 -0.2432 0.9695
v 0.476175 -0.323627 0.216869
vn 0.5976 -0.6495 0.4701
v 0.476175 -0.072264 0.414604
vn 0.4157 -0.4185 0.8075
v 0.476175 -0.072264 0.414604
vn 0.4157 -0.4185 0.8075
v 0.609996 -0.323627 0.069154
vn 0.7901 -0.5506 0.2695
v 0.567762 0.021824 0.414604
vn 0.5323 -0.3598 0.7663
v 0.751522 0.021824 0.069154
vn 0.9583 -0.2636 0.1101
v -0.560177 0.021824 0.272110
vn -0.6309 0.2929 0.7185
v -0.560177 0.367274 0.147265
vn -0.9211 0.3874 0.0393
v -0.608304 0.367274 0.069154
vn -0.8889 0.4529 -0.0689
v -0.792351 0.021824 0.069154
vn -0.8934 0.3884 0.2258
v -0.403672 0.367274 0.414604
vn -0.7451 -0.1115 0.6576
v -0.214726 0.021824 0.378931
vn -0.5099 -0.2835 0.8122
v -0.214726 0.127226 0.414604
vn -0.5490 -0.2593 0.7946
v -0.147307 0.021824 0.414604
vn -0.3935 -0.3800 0.8371
v 0.789484 0.367274 0.069154
vn 0.9843 0.1372 0.1113
v 0.567762 0.021824 0.414604
vn 0.5323 -0.3598 0.7663
v 0.641148 0.367274 0.414604
vn 0.7295 0.2105 0.6508
v -0.560177 0.367274 0.147265
vn -0.9211 0.3874 0.0393
v -0.560177 0.535293 0.069154
vn -0.8703 0.4853 -0.0839
v -0.510069 0.712725 0.069154
vn -0.7773 0.6134 -0.1396
v -0.403672 0.367274 0.414604
vn -0.7451 -0.1115 0.6576
v -0.272453 0.712725 0.414604
vn -0.2714 0.5731 0.7733
v 0.130724 0.712725 0.357137
vn 0.2910 0.9083 0.3006
v 0.000057 0.712725 0.414604
vn 0.1408 0.8317 0.5370
v 0.130724 0.701499 0.414604
vn 0.2729 0.8658 0.4195
v 0.476175 0.675086 0.069154
vn 0.3915 0.9169 0.0781
v 0.321658 0.712725 0.069154
vn 0.3208 0.9466 -0.0333
v 0.476175 0.524185 0.414604
vn 0.6175 0.4389 0.6527
v 0.641148 0.367274 0.414604
vn 0.7295 0.2105 0.6508
v 0.789484 0.367274 0.069154
vn 0.9843 0.1372 0.1113
v -0.510069 0.712725 0.069154
vn -0.7773 0.6134 -0.1396
v -0.272453 0.712725 0.414604
vn -0.2714 0.5731 0.7733
v -0.214726 0.754487 0.414604
vn -0.2017 0.6215 0.7570
v -0.214726 0.903377 0.069154
vn -0.1308 0.9712 -0.1992
v 0.000057 0.712725 0.414604
vn 0.1408 0.8317 0.5370
v 0.130724 0.712725 0.357137
vn 0.2910 0.9083 0.3006
v 0.130724 0.813922 0.069154
vn 0.2887 0.9472 -0.1391
v -0.214726 0.903377 0.069154
vn -0.1308 0.9712 -0.1992
v 0.321658 0.712725 0.069154
vn 0.3208 0.9466 -0.0333
v 0.130724 -0.179273 0.414604
vn -0.0312 -0.5441 0.8384
v 0.130724 0.021824 0.592667
vn -0.0793 -0.4226 0.9028
v -0.147307 0.021824 0.414604
vn -0.3935 -0.3800 0.8371
v 0.476175 -0.072264 0.414604
vn 0.4157 -0.4185 0.8075
v 0.476175 0.021824 0.497721
vn 0.4308 -0.3498 0.8319
v 0.476175 -0.072264 0.414604
vn 0.4157 -0.4185 0.8075
v 0.567762 0.021824 0.414604
vn 0.5323 -0.3598 0.7663
v -0.214726 0.127226 0.414604
vn -0.5490 -0.2593 0.7946
v -0.214726 0.367274 0.549277
vn -0.6024 -0.0833 0.7939
v -0.403672 0.367274 0.414604
vn -0.7451 -0.1115 0.6576
v 0.130724 0.367274 0.664116
vn -0.0102 0.0969 0.9952
v 0.476175 0.367274 0.564578
vn 0.5394 0.2085 0.8158
v 0.130724 0.021824 0.592667
vn -0.0793 -0.4226 0.9028
v 0.641148 0.367274 0.414604
vn 0.7295 0.2105 0.6508
v 0.476175 0.021824 0.497721
vn 0.4308 -0.3498 0.8319
v -0.214726 0.712725 0.450323
vn -0.2000 0.5687 0.7979
v -0.272453 0.712725 0.414604
vn -0.2714 0.5731 0.7733
v 0.130724 0.701499 0.414604
vn 0.2729 0.8658 0.4195
v 0.000057 0.712725 0.414604
vn 0.1408 0.8317 0.5370
v -0.214726 0.367274 0.549277
vn -0.6024 -0.0833 0.7939
v 0.476175 0.524185 0.414604
vn 0.6175 0.4389 0.6527
v 0.130724 0.367274 0.664116
vn -0.0102 0.0969 0.9952
v 0.476175 0.367274 0.564578
vn 0.5394 0.2085 0.8158
v 0.641148 0.367274 0.414604
vn 0.7295 0.2105 0.6508
v -0.214726 0.754487 0.414604
vn -0.2017 0.6215 0.7570
v -0.214726 0.712725 0.450323
vn -0.2000 0.5687 0.7979
usemtl vmd_mat_cindex_2
f -188//-188 -187//-187 -186//-186
usemtl vmd_mat_cindex_15
f -188//-188 -185//-185 -184//-184
usemtl vmd_mat_cindex_2
f -187//-187 -188//-188 -184//-184
usemtl vmd_mat_cindex_15
f -185//-185 -183//-183 -182//-182
f -181//-181 -185//-185 -182//-182
f -182//-182 -183//-183 -180//-180
usemtl vmd_mat_cindex_6
f -179//-179 -178//-178 -186//-186
f -177//-177 -179//-179 -176//-176
usemtl vmd_mat_cindex_15
f -175//-175 -178//-178 -174//-174
f -174//-174 -178//-178 -179//-179
f -173//-173 -175//-175 -172//-172
f -172//-172 -175//-175 -174//-174
usemtl vmd_mat_cindex_6
f -171//-171 -170//-170 -173//-173
f -171//-171 -173//-173 -169//-169
usemtl vmd_mat_cindex_15
f -169//-169 -173//-173 -172//-172
usemtl vmd_mat_cindex_6
f -171//-171 -169//-169 -168//-168
usemtl vmd_mat_cindex_766
f -167//-167 -166//-166 -165//-165
usemtl vmd_mat_cindex_752
f -164//-164 -167//-167 -165//-165
usemtl vmd_mat_cindex_10
f -163//-163 -166//-166 -162//-162
f -162//-162 -166//-166 -167//-167
f -161//-161 -163//-163 -160//-160
f -160//-160 -163//-163 -162//-162
usemtl vmd_mat_cindex_15
f -159//-159 -161//-161 -158//-158
f -158//-158 -161//-161 -160//-160
usemtl vmd_mat_cindex_6
f -157//-157 -156//-156 -159//-159
f -158//-158 -157//-157 -159//-159
usemtl vmd_mat_cindex_749
f -155//-155 -154//-154 -153//-153
usemtl vmd_mat_cindex_770
f -152//-152 -155//-155 -153//-153
usemtl vmd_mat_cindex_6
f -151//-151 -152//-152 -153//-153
f -151//-151 -150//-150 -149//-149
f -151//-151 -149//-149 -152//-152
usemtl vmd_mat_cindex_10
f -152//-152 -149//-149 -148//-148
usemtl vmd_mat_cindex_6
f -147//-147 -148//-148 -146//-146
f -146//-146 -148//-148 -149//-149
f -145//-145 -144//-144 -147//-147
f -146//-146 -145//-145 -147//-147
f -149//-149 -150//-150 -143//-143
f -146//-146 -149//-149 -143//-143
f -142//-142 -146//-146 -143//-143
f -145//-145 -146//-146 -141//-141
usemtl vmd_mat_cindex_2
f -140//-140 -139//-139 -138//-138
f -137//-137 -140//-140 -138//-138
usemtl vmd_mat_cindex_15
f -136//-136 -135//-135 -140//-140
usemtl vmd_mat_cindex_2
f -140//-140 -135//-135 -139//-139
usemtl vmd_mat_cindex_15
f -134//-134 -133//-133 -132//-132
f -132//-132 -133//-133 -135//-135
f -133//-133 -134//-134 -131//-131
f -130//-130 -133//-133 -131//-131
usemtl vmd_mat_cindex_6
f -137//-137 -138//-138 -129//-129
f -128//-128 -127//-127 -129//-129
f -131//-131 -126//-126 -130//-130
f -125//-125 -126//-126 -131//-131
f -126//-126 -125//-125 -124//-124
f -123//-123 -126//-126 -124//-124
usemtl vmd_mat_cindex_753
f -129//-129 -127//-127 -122//-122
usemtl vmd_mat_cindex_746
f -127//-127 -121//-121 -122//-122
usemtl vmd_mat_cindex_6
f -124//-124 -120//-120 -123//-123
f -123//-123 -120//-120 -119//-119
f -118//-118 -117//-117 -116//-116
usemtl vmd_mat_cindex_166
f -118//-118 -116//-116 -115//-115
usemtl vmd_mat_cindex_6
f -115//-115 -116//-116 -121//-121
f -117//-117 -114//-114 -113//-113
f -118//-118 -114//-114 -117//-117
f -113//-113 -114//-114 -112//-112
f -120//-120 -111//-111 -119//-119
f -119//-119 -111//-111 -110//-110
usemtl vmd_mat_cindex_40
f -118//-118 -115//-115 -109//-109
usemtl vmd_mat_cindex_48
f -109//-109 -108//-108 -107//-107
usemtl vmd_mat_cindex_46
f -109//-109 -107//-107 -106//-106
usemtl vmd_mat_cindex_95
f -106//-106 -107//-107 -114//-114
usemtl vmd_mat_cindex_6
f -112//-112 -105//-105 -104//-104
f -112//-112 -103//-103 -105//-105
usemtl vmd_mat_cindex_150
f -103//-103 -107//-107 -105//-105
usemtl vmd_mat_cindex_6
f -102//-102 -104//-104 -105//-105
f -102//-102 -101//-101 -104//-104
f -101//-101 -100//-100 -104//-104
f -99//-99 -98//-98 -97//-97
f -101//-101 -99//-99 -97//-97
usemtl vmd_mat_cindex_50
f -96//-96 -95//-95 -94//-94
usemtl vmd_mat_cindex_102
f -93//-93 -96//-96 -92//-92
usemtl vmd_mat_cindex_144
f -91//-91 -93//-93 -92//-92
usemtl vmd_mat_cindex_6
f -90//-90 -93//-93 -91//-91
usemtl vmd_mat_cindex_2
f -89//-89 -88//-88 -87//-87
usemtl vmd_mat_cindex_15
f -89//-89 -86//-86 -85//-85
usemtl vmd_mat_cindex_6
f -88//-88 -89//-89 -85//-85
usemtl vmd_mat_cindex_15
f -86//-86 -84//-84 -83//-83
f -85//-85 -86//-86 -83//-83
f -84//-84 -82//-82 -83//-83
usemtl vmd_mat_cindex_6
f -88//-88 -81//-81 -80//-80
f -87//-87 -88//-88 -80//-80
usemtl vmd_mat_cindex_15
f -85//-85 -79//-79 -78//-78
f -79//-79 -81//-81 -78//-78
f -83//-83 -77//-77 -85//-85
f -77//-77 -79//-79 -85//-85
usemtl vmd_mat_cindex_6
f -82//-82 -76//-76 -75//-75
usemtl vmd_mat_cindex_15
f -82//-82 -75//-75 -83//-83
f -83//-83 -75//-75 -77//-77
usemtl vmd_mat_cindex_6
f -76//-76 -74//-74 -75//-75
usemtl vmd_mat_cindex_754
f -81//-81 -73//-73 -72//-72
usemtl vmd_mat_cindex_752
f -80//-80 -71//-71 -72//-72
usemtl vmd_mat_cindex_15
f -79//-79 -70//-70 -71//-71
usemtl vmd_mat_cindex_6
f -70//-70 -73//-73 -71//-71
f -69//-69 -77//-77 -68//-68
f -69//-69 -70//-70 -67//-67
usemtl vmd_mat_cindex_15
f -70//-70 -66//-66 -67//-67
usemtl vmd_mat_cindex_6
f -65//-65 -68//-68 -67//-67
f -64//-64 -68//-68 -65//-65
f -63//-63 -65//-65 -62//-62
f -63//-63 -62//-62 -61//-61
f -61//-61 -62//-62 -60//-60
usemtl vmd_mat_cindex_157
f -59//-59 -58//-58 -57//-57
usemtl vmd_mat_cindex_6
f -56//-56 -59//-59 -57//-57
f -55//-55 -54//-54 -53//-53
usemtl vmd_mat_cindex_5
f -55//-55 -58//-58 -54//-54
usemtl vmd_mat_cindex_6
f -58//-58 -59//-59 -54//-54
f -52//-52 -53//-53 -54//-54
f -60//-60 -51//-51 -50//-50
f -50//-50 -51//-51 -49//-49
usemtl vmd_mat_cindex_42
f -57//-57 -48//-48 -47//-47
usemtl vmd_mat_cindex_44
f -48//-48 -46//-46 -47//-47
usemtl vmd_mat_cindex_31
f -48//-48 -45//-45 -46//-46
f -45//-45 -44//-44 -46//-46
usemtl vmd_mat_cindex_6
f -43//-43 -42//-42 -41//-41
f -43//-43 -40//-40 -39//-39
f -43//-43 -41//-41 -40//-40
f -41//-41 -38//-38 -40//-40
f -37//-37 -36//-36 -40//-40
usemtl vmd_mat_cindex_756
f -38//-38 -37//-37 -40//-40
usemtl vmd_mat_cindex_31
f -35//-35 -34//-34 -33//-33
f -32//-32 -35//-35 -33//-33
usemtl vmd_mat_cindex_6
f -31//-31 -30//-30 -29//-29
usemtl vmd_mat_cindex_5
f -31//-31 -29//-29 -33//-33
usemtl vmd_mat_cindex_109
f -33//-33 -29//-29 -28//-28
usemtl vmd_mat_cindex_6
f -27//-27 -29//-29 -30//-30
f -26//-26 -25//-25 -24//-24
f -26//-26 -23//-23 -22//-22
f -25//-25 -26//-26 -22//-22
f -21//-21 -20//-20 -22//-22
usemtl vmd_mat_cindex_5
f -19//-19 -18//-18 -17//-17
usemtl vmd_mat_cindex_6
f -19//-19 -24//-24 -25//-25
f -19//-19 -25//-25 -18//-18
f -18//-18 -25//-25 -16//-16
f -22//-22 -15//-15 -14//-14
f -15//-15 -16//-16 -14//-14
f -20//-20 -13//-13 -15//-15
f -12//-12 -20//-20 -15//-15
usemtl vmd_mat_cindex_5
f -18//-18 -11//-11 -10//-10
f -17//-17 -18//-18 -10//-10
f -9//-9 -8//-8 -11//-11
usemtl vmd_mat_cindex_6
f -9//-9 -11//-11 -16//-16
f -16//-16 -11//-11 -7//-7
f -6//-6 -9//-9 -5//-5
usemtl vmd_mat_cindex_748
f -4//-4 -6//-6 -5//-5
usemtl vmd_mat_cindex_741
f -3//-3 -6//-6 -4//-4
usemtl vmd_mat_cindex_31
f -10//-10 -11//-11 -2//-2
usemtl vmd_mat_cindex_5
f -8//-8 -2//-2 -1//-1
